<svg version="1" xmlns="http://www.w3.org/2000/svg" width="682.667" height="682.667" viewBox="0 0 512.000000 512.000000"><path d="M9.3 42.5c.4.8-.6 2.4-2.3 3.8-2 1.7-2.5 2.8-1.9 3.8C6.3 52 6.2 53 4.9 53c-.5 0-.7-.5-.4-1 .3-.6.1-1-.4-1-1.4 0-1.4 1.7 0 2.5.6.4.8 1.3.5 2-.2.7 0 1.7.6 2.3.6.6.6 1.2-.1 1.6-.6.4-1.1 1.2-1.1 1.7 0 .6.4.7 1 .4.5-.3 1-.1 1 .4 0 1-1.4 1.5-3.2 1.2-1.3-.2-.9.6.9 2 1.5 1.2 1.6 1.2.8-.1-.4-.8-.4-1.2 0-.7 1.1.9 1.3 5.7.2 5-.8-.5-.2 4 .8 5.6.3.5-.2 1.4-1.1 1.9-1.5.8-1.5 1 0 1.5.9.4 1.3 1.3 1 2.2-.3.8-.9 1.3-1.3 1.1-.4-.3-.7.6-.7 1.9 0 1.3.4 2.1.8 1.9 1.2-.8 1 1-.3 2.3-.8.8-.7 1.3.2 1.8.8.6 1 .4.4-.6-.5-.8-.4-1.1 0-.6 1.2 1 1.3 5.7.1 5-.5-.4-.7.1-.3.9.3.9.1 2-.5 2.6-.6.6-.6 1.2.3 1.7.8.6 1 .4.4-.5s-.4-1.1.4-.6c.9.6.8 1.3-.6 2.9-1 1.1-1.3 1.7-.7 1.4.7-.4 1.5 0 1.8.9.3.8.2 1.2-.4.9-.6-.3-1-.1-1 .4 0 .6.6 1.1 1.3 1.2.6 0 .3.4-.8.9-1.9.8-1.9.9-.1.9 1.5.1 1.6.4.6 1.6-1.1 1.3-1 1.4.5.9 1.2-.5 1.6-.4 1.2.3-.4.6 0 1.6.7 2.2 1 .8 1.6.9 2.1.2.4-.7 1.6-.6 3.7.5 2.3 1.2 3.3 1.3 4.2.4.8-.8.7-1-.5-.5-1 .4-1.9.2-2.3-.3-.8-1.3 3-.8 4.7.6.7.7 1.7.9 2 .5.4-.3.7-.1.7.6s.9.3 2.1-1c1.1-1.3 1.8-1.8 1.4-1.2-.3.7-.3 1.3.2 1.4.4 0 1.8.2 3.1.3 1.2.2 2.2-.2 2.2-.7 0-.5.6-.5 1.3.1 1 .9 1.9.8 3.5-.3 1.5-1.1 2.3-1.2 2.8-.4.4.8.3.9-.4.5-.8-.5-1-.2-.6.8.5 1.3.9 1.2 2.6-.7 1.4-1.5 1.8-1.7 1.4-.5-.4 1.4 0 1.5 2.7.7 3.9-1.1 3.9-1.1 3.3-.1-.3.5.1.9.9.9s1.2-.4.9-.8c-.2-.4 0-1 .6-1.4.5-.3 1 0 1 .8 0 .7.7 1.4 1.5 1.4s1.2-.4.9-.8c-.2-.4 0-1 .6-1.4.5-.3 1 .2 1.1 1.2 0 1 .3 1.3.5.7.2-.6 2.1-.9 4.1-.7 2 .1 4.3-.3 5.2-1 1.2-1 1.4-.9.7.8-.4 1.1-.4 1.6 0 1.2.4-.4 1.4-.1 2.2.6 1.3.9 1.4.9.8-.1-.4-.7-.2-1.2.4-1.2.6 0 .8-.4.5-1-.3-.6.1-.7.9-.4.9.3 1.3 1 1 1.5-.3.5 0 .9.5.9.6 0 1.1-.5 1.1-1.1 0-.8.4-.8 1.4 0 1.1.9 1.7.8 2.8-.2 1.2-1.2 1.6-1.2 2.7 0s1.6 1.2 3.6-.1c1.7-1.2 2.6-1.3 3.1-.4.4.7.3.8-.4.4-.8-.5-1-.1-.5 1 .5 1.4.8 1.3 1.9-.7 1.2-2.1 1.8-1.9 1.5.3 0 .3 1.4.2 3.2-.3 3.9-1.1 3.9-1.1 3.3-.1-.3.5.1.9.9.9s1.2-.4.9-.8c-.2-.4 0-1 .6-1.4.5-.3 1 0 1 .8 0 .7.7 1.4 1.5 1.4s1.2-.4.9-.8c-.2-.4 0-1 .6-1.4.5-.3 1 .2 1.1 1.2 0 1 .3 1.3.5.7.2-.6 2.1-.9 4.1-.7 2 .1 4.3-.3 5.2-1 1.2-1 1.4-.9.9.4-.5 1.2-.1 1.5 1.8 1.1 1.3-.2 2.4-.9 2.4-1.4 0-.5.5-.6 1-.3.6.4.8 1 .6 1.4-.4.7 1.4.7 5.7.2.5-.1.5-.6.1-1.2-.3-.6.4-.4 1.8.5 2.1 1.4 2.6 1.4 4.5.1 1.6-1.1 2.4-1.2 2.9-.4.4.8.3.9-.4.5-.8-.5-1-.2-.6.8.5 1.3.9 1.2 2.6-.7 1.4-1.5 1.8-1.7 1.4-.5-.4 1.4 0 1.5 2.7.7 3.9-1.1 3.9-1.1 3.3-.1-.3.5.1.9.9.9s1.2-.4.9-.8c-.2-.4 0-1 .6-1.4.5-.3 1 0 1 .8 0 .7.7 1.4 1.5 1.4s1.2-.4.9-.8c-.2-.4 0-1 .6-1.4.5-.3 1 .2 1.1 1.2 0 1 .3 1.3.5.7.2-.6 2.1-.9 4.1-.7 2 .1 4.3-.3 5.2-1 1.2-1 1.4-.9.8.5-.3 1-.2 1.8.3 1.8.6 0 1-.4 1-.9 0-1.4 2.9-2.1 3.6-.9.4.6.3.8-.4.4-.6-.3-1.3-.2-1.6.3-.7 1 1.9.9 3-.1 1.7-1.8 3 .6 2.8 5.5-.3 7.7-.3 7.9-1.6 7.2-.7-.4-.5 0 .5.8 1.7 1.4 2.4 3.3.9 2.3-.4-.2-1.4.5-2.2 1.7-1.2 2-1.2 2.1.4.8 2.5-2.1 2.9-.8.6 1.7-2.1 2.2-1.4 3.2.7 1.1.9-.9 1.2-.7 1 .9 0 1.1-.5 1.8-.9 1.6-.4-.3-.8 0-.8.5 0 .6.4 1.1.9 1.1.6 0 .8 1 .6 2.2-.3 1.2.1 2.8.8 3.7.8 1 .8 1.2.1.8-.7-.4-1.4 0-1.8.8-.3.8-.2 1.5.3 1.5.4 0 .8.7.8 1.5 0 1.1-.4 1.2-1.4.3-1.1-.8-1.2-.7-.7.6.3.9 1.1 1.6 1.8 1.6s.7.3.1.8c-.5.4-1.7 1.6-2.5 2.7-1.5 2-1.4 2 .8.1 2.8-2.4 2.9-.7.2 2.2-2.1 2.2-1.4 3.2.7 1.1.9-.9 1.2-.7 1 .9 0 1.1-.4 1.9-.7 1.7-.3-.2-1.2.6-2 1.8-1.2 2-1.2 2.1.4.8 2.5-2.1 2.9-.8.6 1.7-2.1 2.2-1.4 3.2.7 1.1.9-.9 1.2-.7 1 .9 0 1.1-.5 1.8-.9 1.6-.4-.3-.8 0-.8.5 0 .6.4 1.1.9 1.1.6 0 .8 1 .6 2.2-.3 1.2.1 2.8.8 3.7.8 1 .8 1.2.1.8-.7-.4-1.4 0-1.8.8-.3.8-.2 1.5.3 1.5.4 0 .8.7.8 1.5 0 1.1-.4 1.2-1.4.3-1.1-.8-1.2-.7-.7.6.3.9 1.1 1.6 1.8 1.6s.7.3.1.8c-.5.4-1.7 1.6-2.5 2.7-1.5 2-1.4 2 .8.1 2.8-2.4 2.9-.7.2 2.2-2.1 2.2-1.4 3.2.7 1.1.9-.9 1.2-.7 1 .9 0 1.1-.5 1.8-.9 1.6-.4-.3-.8 0-.8.5 0 .6.4 1.1.9 1.1 1.4 0 .7 3-1 4.1-1.1.7-1.1.9.4.9 2.3 0 2.2.8-.5 3.9-1.3 1.4-1.6 2-.8 1.3 1.8-1.6 2.7-1.5 2.7.3 0 .8-.4 1.2-.9.9-.4-.3-.8-.1-.8.5 0 .5.6 1.1 1.3 1.4.9.3.9.7 0 1.9-.7.8-1 1.8-.7 2.1.4.4-.6.3-2.2-.2-1.6-.4-3.8-.5-4.9-.1-1.1.4-2.4.5-2.9.2-1.7-1-8.5-.8-7.9.2.4.6-.1.5-1-.3-1.4-1.1-1.7-1.1-1.7 0 0 1-.3 1-1.2.1-1.6-1.6-3.1-1.5-2.2 0 .5.9.2.9-.9-.1-1.4-1.1-1.7-1.1-1.7 0 0 1-.3 1-1.2.1-1.5-1.5-3.2-1.6-2.2-.1.4.8 0 .8-1.5 0-1.6-.9-2.1-.9-2.1.1-.1.8-.7.5-1.5-.6-1.4-1.8-1.5-1.9-1.5-.2s-.2 1.7-2.5.2c-2.2-1.5-2.5-1.5-3.3 0-.6 1.1-1.1 1.3-1.6.5-.4-.6-1.2-1.1-1.7-1.1-.6 0-.7.5-.3 1.1.4.8 0 .8-1.5 0-1.6-.9-2.1-.9-2.1.1-.1.8-.7.5-1.5-.6-1.4-1.8-1.5-1.9-1.5-.2s-.2 1.7-2.5.2c-1.9-1.3-2.3-1.3-1.9-.2.4 1.1 0 1.3-1.8.9-1.3-.3-2.9-1-3.6-1.6-.9-.7-1.1-.6-.7.6.5 1.3.1 1.4-2.7.8-1.8-.4-4.2-.5-5.3-.1-1.1.4-2.4.5-2.9.2-1.7-1-8.5-.8-7.9.2.4.6-.1.5-1-.3-1.4-1.1-1.7-1.1-1.7 0 0 1-.3 1-1.2.1-1.6-1.6-3.1-1.5-2.2 0 .5.9.2.9-.9-.1-1.4-1.1-1.7-1.1-1.7 0 0 1-.3 1-1.2.1-1.5-1.5-3.2-1.6-2.2-.1.4.8 0 .8-1.5 0-1.6-.9-2.1-.9-2.1.1-.1.8-.7.5-1.5-.6-1.4-1.8-1.5-1.9-1.5-.2s-.2 1.7-2.5.2c-2.2-1.5-2.5-1.5-3.3 0-.6 1.1-1.1 1.3-1.6.5-.4-.6-1.2-1.1-1.7-1.1-.6 0-.7.5-.3 1.1.4.8 0 .8-1.5 0-1.6-.9-2.1-.9-2.1.1-.1.8-.7.5-1.5-.6-1.4-1.8-1.5-1.9-1.5-.2s-.2 1.7-2.5.2c-2.1-1.4-2.4-1.4-1.9-.1.4.8.1 1.5-.5 1.5s-1.1-.8-1.2-1.8c0-1.5-.1-1.4-.8.3-.8 1.9-.8 1.9-1.9 0-1.1-2-1.1-2-1.2-.1 0 1.4-.3 1.7-1 1-1.4-1.4-7.2-.5-6.3.9.3.5.1.7-.5.3-1.4-.8-2.3.8-2.4 4.4-.1 1.8-.5 2.7-1.2 2.3-.6-.3-.5 0 .2.8 1.8 1.9 1.5 3.2-.6 2.4-1.3-.5-1.4-.3-.5.6.6.6.9 1.8.6 2.7-.4.9-.2 1.3.4.9.5-.3 1 0 1 .8s-.4 1.2-.8 1c-.4-.3-1 .2-1.3 1-.3.9.1 1.8.9 2.2 1.3.5 1.3.7-.2 1.9-1 .8-1.3 1.4-.8 1.3 2.4-.3 2.6.2.8 1.8-1 1-1.4 1.5-.9 1 1.3-.9 2.6-.9 2.6.1 0 .5-1 1.4-2.2 2.1-1.3.6-1.5.9-.6.7 2.2-.6 3.3 1 1.3 1.8-.8.3-1.5 1.1-1.5 1.8 0 .9.3.9 1-.2.5-.8 1.2-1.1 1.6-.7.4.3.2 1.3-.5 2.1-1.5 1.8-2.3 5.9-1 5.1.5-.4.7-1 .4-1.5-.3-.5-.2-1.1.3-1.4 1.2-.7 1.2 2.6 0 4-1.3 1.7-1.9 5.6-.7 4.9.5-.4.7-1 .4-1.5-.3-.5-.2-1.1.3-1.4 1.2-.7 1.2 2.6 0 4-1.3 1.7-1.9 5.6-.7 4.9.5-.4.7-1 .4-1.5-.3-.5-.1-1.1.3-1.4 1.3-.8.9 2.5-.5 5-.8 1.4-.8 2.5-.1 3.5.8 1.1.9 1.1.4-.3-.3-1-.2-1.9.2-2.2.4-.3.8.4.9 1.4.1 1.1-.2 2.2-.8 2.5-.5.4-.9 1.1-.9 1.6 0 .6.4.8.9.5 1.2-.8.8 2.5-.7 5.1-.9 1.6-.9 2.4 0 2.9.6.4.8.3.4-.4-.3-.6-.3-1.3.2-1.6.4-.2.9.4.9 1.5.1 1-.2 1.9-.6 1.9-.4 0-.8.7-.8 1.5 0 .9.6 1.4 1.4 1.1.7-.3 1.2-.2 1.1.2-.3 1 2 7.2 2.7 7.2.3 0 .3-.5 0-1-.3-.6-.1-1 .4-1 .6 0 1.1.5 1.1 1.1 0 .8.4.8 1.2.2.7-.5 1.9-.8 2.6-.7.6.1 1.6.2 2.2.3.5 0 .7.9.4 1.9-.5 1.4-.4 1.4.4.3.8-1.2 1.4-1.2 2.5-.3 1.2 1 1.6.9 2-.2.4-1 .1-1.3-.7-1-.8.3-1.6.1-2-.4-.6-1 2.4-.9 4.2.2.7.4 1.2.2 1.2-.4 0-.6 1.1.2 2.5 1.7s2.4 2.1 2.3 1.3c-.2-.9.4-1.4 1.4-1.4 1 .1 1.6-.2 1.3-.6-.3-.4.2-1.1 1.1-1.4 1.2-.4 1.5-.2 1 .9-.4 1.3-.2 1.4 1.4.5 1.5-.8 2.1-.6 2.9.7.6 1.1 1.1 1.3 1.1.5 0-.7.4-1.1.9-.7.5.3 1.3 0 1.7-.6.5-.8.3-.9-.6-.4-.8.5-1.1.4-.7-.3.4-.5 1.6-.8 2.8-.5 1.4.4 1.7.8.8 1.3-.7.5-.2.7 1.4.7 1.4-.1 2.3-.5 2.1-.8-.2-.4.3-1 1.2-1.3 1.1-.4 1.5-.2 1.1.6-.3.8.4 1.3 1.8 1.3 1.5 0 2-.4 1.5-1-.6-.7-.2-1.1 1-1.1 1 0 1.7.3 1.4.7-.2.4.3 1 1.2 1.3.8.3 1.2.2.9-.3-.3-.5-.1-1.2.5-1.6.5-.3 1 .1 1 .9 0 2.1 1.7 2.9 2.4 1 .4-1 .2-1.3-.7-.8-.7.4-.8.3-.4-.2 1.4-1.5 4.1-1 5.5 1.1 1.3 2 1.3 2 .9-.2-.3-1.5-.1-2 .9-1.6.8.3 1.2.8 1 1.2-.3.4.4.7 1.4.7 1 0 1.7-.3 1.4-.7-.2-.4.3-1 1.2-1.3 1.1-.4 1.5-.2 1.1.6-.3.8.4 1.3 1.8 1.3 1.5 0 2-.4 1.5-1-.6-.7-.2-1.1 1-1.1 1 0 1.7.3 1.4.7-.2.4.3 1 1.2 1.3.8.3 1.2.2.9-.3-.3-.5-.1-1.2.5-1.6.5-.3 1 .1 1 .9 0 2.1 1.7 2.9 2.4 1 .4-1 .2-1.3-.7-.8-.7.4-.8.3-.4-.2 1.4-1.5 4.1-1 5.5 1.1 1.3 2 1.3 2 .9-.2-.3-1.5-.1-2 .9-1.6.8.3 1.2.8 1 1.2-.3.4.4.7 1.4.7 1 0 1.7-.3 1.4-.7-.2-.4.3-1 1.2-1.3 1.2-.4 1.5-.2 1 .9-.4 1.3-.2 1.4 1.4.5 1.5-.8 2.1-.6 2.9.7.6 1.1 1.1 1.3 1.1.5 0-.7.4-1.1.9-.7.5.3 1.3 0 1.7-.6.5-.8.3-.9-.6-.4-.8.5-1.1.4-.7-.3.4-.5 1.6-.8 2.8-.5 1.4.4 1.7.8.8 1.3-.7.5-.2.7 1.4.7 1.4-.1 2.3-.5 2.1-.8-.2-.4.3-1 1.2-1.3 1.1-.4 1.5-.2 1.1.6-.3.8.4 1.3 1.8 1.3 1.5 0 2-.4 1.5-1-.6-.7-.2-1.1 1-1.1 1 0 1.7.3 1.4.7-.2.4.3 1 1.2 1.3.8.3 1.2.2.9-.3-.3-.5-.1-1.2.5-1.6.5-.3 1 .1 1 .9 0 2.1 1.7 2.9 2.4 1 .4-1 .2-1.3-.7-.8-.7.4-.8.3-.4-.2 1.4-1.5 4.1-1 5.5 1.1 1.3 2 1.3 2 .9-.1-.3-1.3.1-2.1 1-2.1.8 0 1.2.5 1 1.2-.3.6.3 1.1 1.3 1.1s1.7-.3 1.4-.7c-.2-.4.3-1 1.2-1.3 1.2-.5 1.5-.2 1 .9-.3.9-.2 1.3.4 1 .5-.3 1.9-.8 2.9-1 2-.4 2.1.8.5 4.9-.6 1.5-.4 1.7.7 1.1.8-.5.5.2-.5 1.4-1.3 1.4-1.5 2-.5 1.6 1-.4 1.5.3 1.5 2.6.1 2.2-.1 2.7-.7 1.8-.7-1.1-.9-1-.9.3 0 1 .4 1.8.8 1.8 1 0 .9 6.1-.1 7.8-.5.7-1.3.9-1.9.6-.7-.4-.8-.2-.4.4.4.6 1.2.9 1.9.6.8-.3 1.3.7 1.3 2.7.1 1.7-.1 2.7-.5 2.1-.3-.6-1.1 0-1.8 1.4-1 2.2-1 2.4.3 1.3 2.3-1.9 2.6-.5.4 1.9-2.1 2.2-1.4 3.2.7 1.1.9-.9 1.2-.7 1 .9 0 1.1-.5 1.8-.9 1.6-.4-.3-.8 0-.8.5 0 .6.4 1.1.9 1.1.6 0 .8 1 .6 2.2-.3 1.2.1 2.8.8 3.7.8 1 .8 1.2.1.8-.7-.4-1.4 0-1.8.8-.3.8-.2 1.5.3 1.5.4 0 .8.7.8 1.5 0 1.1-.4 1.2-1.4.3-1.1-.8-1.2-.7-.7.6.3.9 1.1 1.6 1.8 1.6s.7.3.1.8c-.5.4-1.7 1.6-2.5 2.7-1.5 2-1.4 2 .8.1 2.8-2.4 2.9-.7.2 2.2-2.1 2.2-1.4 3.2.7 1.1.9-.9 1.2-.7 1 .9 0 1.1-.4 1.9-.7 1.7-.3-.2-1.2.6-2 1.8-1.2 2-1.2 2.1.4.8 2.5-2.1 2.9-.8.6 1.7-2.1 2.2-1.4 3.2.7 1.1.9-.9 1.2-.7 1 .9 0 1.1-.5 1.8-.9 1.6-.4-.3-.8 0-.8.5 0 .6.4 1.1.9 1.1.6 0 .8 1 .6 2.2-.3 1.2.1 2.8.8 3.7.8 1 .8 1.2.1.8-.7-.4-1.4 0-1.8.8-.3.8-.2 1.5.3 1.5.4 0 .8.7.8 1.5 0 1.1-.4 1.2-1.4.3-1.1-.8-1.2-.7-.7.6.3.9 1.1 1.6 1.8 1.6s.7.3.1.8c-.5.4-1.7 1.6-2.5 2.7-1.5 2-1.4 2 .8.1 2.8-2.4 2.9-.7.2 2.2-2.1 2.3-1.4 3.2.8 1 1-1 1.2-.7.8 1.2-.2 1.4-.5 2.9-.5 3.4-.1.5-.8.2-1.8-.5-1.5-1.3-1.5-1.2-.3.8 1.2 1.8 1.7 2 3 1 1.2-1 1.3-1 .4.3-.6.8-1 2.5-.9 3.7.1 1.2-.2 2-.7 1.7-.7-.5-1.2 1-.9 2.8 0 .5-.4.8-.9.8-.6 0-1 .5-1 1.1 0 .8.5.8 1.5-.1.8-.7 1.2-1.6.9-2.1-.3-.5-.1-.9.5-.9.5 0 .9.9.8 2-.1 1-.3 1.7-.6 1.5-.2-.3-1.3.3-2.3 1.2-1.5 1.4-1.9 1.4-1.6.3.2-1-.3-1.4-1.6-1.2-1.2.2-1.6-.1-1-.9.5-.9.3-.9-.7-.3-2 1.3-3.3 1.1-4.5-.5-.9-1.1-1.2-1.2-1.9-.1-.5.9-.4 1.1.3.6.7-.4 1.2-.2 1.2.3 0 .6-.9 1.1-2.1 1.1-1.3 0-1.8-.4-1.3-1.2.4-.6.3-.8-.4-.4-.5.3-1.2.3-1.5-.1-.2-.5-.2-.3-.1.4.2.7-.2 1.5-.8 1.9-.7.4-.8.3-.4-.4s.2-1.2-.4-1.2c-.6 0-.8-.6-.4-1.2.4-.7-.2-.5-1.3.5-1.8 1.6-2.1 1.6-2.6.3-.7-1.7-3.7-1.1-3.7.6 0 .6.6.5 1.5-.2s1.5-.8 1.5-.2c0 1.4-2.8 2.3-3.5 1.2-.3-.5-1.3-.6-2.2-.3-1.2.5-1.4.3-.8-.8.8-1.2.6-1.2-.8 0-.9.7-1.7 1-1.7.5s-.5-.2-1 .6c-.9 1.3-1 1.3-1.1 0-.1-.8-.1-1.8-.1-2.1.1-.4-.8-.5-1.8-.2-1.1.3-2 1-2 1.5s.4.7.8.4c.5-.3.9.1.9.9 0 1.3-.3 1.3-1.6.1-.9-.7-2.2-1.1-3-.8-1 .3-1.1 0-.5-.9.7-1.2.5-1.2-.9 0-.9.7-1.7 1-1.7.5s-.5-.2-1 .6c-.9 1.3-1 1.3-1.1 0-.1-.8-.1-1.8-.1-2.1.1-.4-.8-.5-1.8-.2-1.1.3-2 .8-2 1.2 0 .4-.9.7-2 .8-1.3.1-1.8-.2-1.3-1 .4-.7-.2-.5-1.2.3s-1.6 1-1.2.3c.4-.6.3-1.5-.3-1.8-.6-.4-1-.3-.9.2.4 2.1-.2 2.5-1.4.8-1.1-1.4-1.6-1.5-2.2-.5-.5.9-.4 1.1.3.6.7-.4 1.2-.2 1.2.3 0 .6-.9 1.1-2.1 1.1-1.3 0-1.8-.4-1.3-1.2.4-.6.3-.8-.4-.4-.5.3-1.2.3-1.5-.1-.2-.5-.2-.3-.1.4.2.7-.2 1.5-.8 1.9-.7.4-.8.3-.4-.4s.2-1.2-.4-1.2c-.6 0-.8-.6-.4-1.2.4-.7-.2-.5-1.3.5-1.9 1.6-2.1 1.7-2.7.1-.5-1.3-.9-1.4-2.1-.4-.8.7-1.5.9-1.5.5s-.8-.1-1.7.6c-1.5 1.2-1.6 1.2-1-.5.6-1.6.5-1.7-.8-.6-.8.7-1.2 1.7-.8 2.4.4.6 0 .5-.9-.2-1.4-1.1-1.8-1-2.6.4-.9 1.6-1 1.5-1.7-.5-.6-2.1-.7-2.2-2.1-.4-1 1.2-1.2 1.3-.9.3.6-1.8-3-2.5-4-.9-.4.5-1.1.6-1.7.3-.8-.5-.9-.1-.5 1.2.7 1.9.7 1.9-.8 0-.8-1-1.2-2.2-1-2.7.3-.4-.4-.5-1.5-.2s-2 .8-2 1.2c0 .4-.9.7-2 .8-1.3.1-1.8-.2-1.3-1 .4-.7-.2-.5-1.2.3s-1.6 1-1.2.3c.4-.6.3-1.5-.3-1.8-.6-.4-1-.3-.9.2.4 2.1-.2 2.5-1.4.8-1.1-1.4-1.6-1.5-2.2-.5-.5.9-.4 1.1.3.6.7-.4 1.2-.2 1.2.3 0 .6-.9 1.1-2.1 1.1-1.3 0-1.8-.4-1.3-1.2.4-.6.3-.8-.4-.4-.5.3-1.2.3-1.5-.1-.2-.5-.2-.3-.1.4.2.7-.2 1.5-.8 1.9-.7.4-.8.3-.4-.4s.2-1.2-.4-1.2c-.6 0-.8-.6-.4-1.3.4-.6-.2-.4-1.3.6-1.8 1.6-2.1 1.6-2.6.3-.7-1.7-3.7-1.1-3.7.6 0 .6.6.5 1.5-.2s1.5-.8 1.5-.2c0 1.4-2.8 2.3-3.5 1.2-.3-.5-1.3-.6-2.2-.3-1.2.5-1.4.3-.8-.8.8-1.2.6-1.2-.8 0-.9.7-1.7 1-1.7.5s-.5-.2-1 .6c-.9 1.3-1 1.3-1.1 0-.1-.8-.1-1.8-.1-2.1.1-.4-.8-.5-1.8-.2-1.1.3-2 1-2 1.5s.4.7.8.4c.5-.3.9.1.9.9 0 1.3-.3 1.3-1.6.1-.9-.7-2.2-1.1-3-.8-1 .3-1.1 0-.5-.9.7-1.2.5-1.2-.9 0-.9.7-1.7 1-1.7.5s-.5-.2-1 .6c-.9 1.3-1 1.3-1.1 0-.1-.8-.1-1.8-.1-2.1.1-.4-.8-.5-1.8-.2-1.1.3-2 .8-2 1.2 0 .4-.9.7-2 .8-1.3.1-1.8-.2-1.4-.9.5-.7.2-.8-.7-.3-.7.5-3.1 1-5.3 1.1-2.2.1-4.2.7-4.4 1.3-.2.6-.8.9-1.3.5-.5-.3-.9-.2-.8.3.3 1.9-.2 2.7-1 1.5-.5-.9-.8-.3-.9 1.8 0 1.7-.6 3.7-1.2 4.5-.8 1-.8 1.5.1 2.1.8.5.9.3.4-.6-.6-.9-.4-1.1.4-.6.9.6.8 1.3-.6 2.9-1 1.1-1.3 1.7-.7 1.4.7-.4 1.4 0 1.8.8.3.8.2 1.4-.2 1.4-1.9-.3-2.2.3-.7 1.7 1.5 1.5 1.5 1.8-.1 4.1-1.2 1.9-1.3 2.8-.4 3.7.8.8.9.6.4-.9-.4-1.1-.4-1.7 0-1.3 1.1.9 1.4 6.8.4 6.2-.9-.6-.4 3.9.7 5.5.3.5-.2 1.4-1.1 1.9-1.5.8-1.5 1 0 1.5.9.4 1.3 1.3 1 2.2-.3.8-.9 1.3-1.3 1.1-.4-.3-.7.6-.7 1.9 0 1.3.4 2.1.8 1.9 1.2-.8 1 1-.3 2.3-.8.8-.7 1.3.2 1.8.8.6 1 .4.4-.6-.5-.8-.4-1.1 0-.6 1.1 1 1.3 5.7.2 5-.5-.3-.6.5-.2 1.7.5 1.4.3 2-.3 1.6-1.2-.7-1 2 .3 3.1.4.4.5.2 0-.6-.6-1-.4-1.2.5-.6 1 .6 1 1.1-.3 2-2 1.4-1.2 2.6 1.1 1.8 1.1-.3 1.3-.2.6.4-1.4 1.1-2.7 4.6-1.4 3.8.6-.4 1.7.1 2.6.9.8.9 2.4 1.6 3.5 1.6 1 0 1.9.5 1.9 1.1 0 .5-.5.7-1.2.3-.7-.5-.8-.3-.4.5.6.9 1.2.9 2.5-.3 2-1.9 3.1-2 3.1-.5 0 .5-.4.8-.8.5-.5-.3-.9.1-.9.8 0 1.1.4 1.2 1.8.3 1-.6 1.6-1.4 1.4-1.7-.2-.3.7-.6 2-.6s2.1.5 1.9 1c-.3.6.2.2 1.2-.9 1.4-1.6 1.6-1.7 1.1-.3-.5 1.3-.1 1.7 1.3 1.5 1.1-.2 2.3-.6 2.6-1 1.4-1.4 2.6-.7 1.4.8-1 1.2-.7 1.3 2.2.5 1.8-.6 3.4-1 3.6-1 .2 0 0-.6-.4-1.2-.6-1-.5-1 .8-.1.8.7 1.9.9 2.3.5.5-.4.5-.2.2.4-.4.7 0 1.4.8 1.8.8.3 1.4.1 1.2-.3-.1-.5.1-.8.4-.8.3.1 1.4-.5 2.5-1.3 1.8-1.4 1.8-1.4.1.6-1.6 2-1.6 2.1.3 1.9 1.1-.1 2.3-.5 2.7-1 .5-.4.2-.5-.4-.1-.9.5-1.1.2-.6-.9.3-.9.9-1.3 1.2-.7.3.5 3.2.8 6.4.7 5.6-.2 5.7-.2 4 1.8-1.8 2-1.8 2 1.1.1 3.4-2.1 6.6-2.8 6.6-1.4 0 .6.5 1 1.1 1 .5 0 .8-.3.6-.8-.3-.4.8-.7 2.3-.7 1.6-.1 2.6.3 2.3.8-.3.5.4.6 1.6.2 1.7-.5 2-.3 1.5 1.2-.5 1.4-.4 1.5.4.3.6-.8.9-1.7.6-2.1-.2-.4.1-1.1.7-1.5.8-.4.9-.3.5.4-.4.6.4 1.6 1.6 2.3 2 1.1 2.1 1 1.1-.3-1-1.2-1-1.5.2-1.5.8 0 1.5.4 1.5.9 0 .4.5.8 1.1.8.5 0 .8-.3.6-.8-.3-.4.8-.7 2.3-.7 1.6-.1 2.6.3 2.3.8-.3.5.4.6 1.6.2 1.7-.5 2-.3 1.5 1.2-.5 1.4-.4 1.5.4.3.6-.8.9-1.7.6-2.1-.2-.4.1-1.1.7-1.5.7-.4.9-.3.5.4-.7 1.2.4 2.1 3.4 2.7 1.8.3 1.9.1.8-1.8-1-1.9-.9-2 .4-1 .8.7 1.9.9 2.3.5.5-.4.4-.1 0 .7-.6 1.1-.4 1.3.8.8 1-.4 2 0 2.6 1.1.9 1.5 1 1.4.8-.6-.1-1.2-.6-2.2-1.1-2.2-.5 0-.6-.3-.2-.7.4-.4 1.6.3 2.8 1.7 1.1 1.4 1.7 1.9 1.3 1.2-.3-.6-.2-1.2.4-1.2.6 0 .8-.8.6-1.8-.3-.9.2-.2 1 1.5 1.8 3.8 2.5 4.3 1.8 1.1-.3-1.7-.2-1.9.5-.9 1.2 1.7 5.6.5 4.5-1.2-.5-.8-.2-.8.9 0 .8.7 1.9.9 2.3.5.5-.4.5-.2.2.4-.4.7 0 1.4.8 1.8.8.3 1.4.2 1.2-.2-.1-.4.1-.7.4-.7.3 0 1.4-.7 2.5-1.5 1.8-1.4 1.8-1.4.1.6-1.6 2-1.6 2.1.3 1.9 1.1-.1 2.3-.5 2.7-1 .5-.4.2-.5-.4-.1-.9.5-1.1.2-.6-.9.3-.9.9-1.3 1.2-.7.3.5 3.2.8 6.4.7 5.7-.2 5.7-.2 4 1.8-1.6 1.9-1.5 1.8 1.5-.2 1.7-1.2 3.2-1.9 3.2-1.5 0 .3.6.1 1.4-.5 1-.8 1.6-.9 2.1-.1.3.6 1.1.7 1.7.4.7-.5.8-.2.3.6-.6 1-.4 1.2.8.7 1-.4 2 0 2.6 1.1.9 1.5 1 1.4.8-.5-.1-1.3-.6-2.3-1.1-2.3-.5 0-.6-.3-.2-.7.4-.4 1.6.3 2.8 1.7 1.1 1.4 1.7 1.9 1.3 1.3-.3-.7-.2-1.3.4-1.3.6 0 .8-.8.6-1.7-.3-1 .2-.3 1 1.4 1.8 3.8 2.5 4.3 1.8 1.1-.3-1.7-.2-1.9.5-.9.8 1.1 1 1.1 1.5 0 .4-1 .6-1 .6-.2.1.7.6 1.3 1.2 1.3.5 0 .8-.3.6-.8-.3-.4.8-.7 2.3-.7 1.6-.1 2.6.3 2.3.8-.3.5.4.6 1.6.2 1.7-.5 2-.3 1.5 1.2-.5 1.4-.4 1.5.4.3.6-.8.9-1.7.6-2.1-.2-.4.1-1.1.7-1.5.8-.4.9-.3.5.4-.4.6.4 1.6 1.6 2.3 2 1.1 2.1 1 1.1-.3-1-1.2-1-1.5.2-1.5.8 0 1.5.4 1.5.9 0 .4.5.8 1.1.8.5 0 .8-.4.5-.8-.3-.5.5-.8 1.7-.7 1.2.1 2.9-.3 3.7-.9 1.3-.9 1.3-.8.3.4-1 1.3-.8 1.8 1 3 1.9 1.1 2 1.1 1-.1-.9-1.1-.6-1.8 1.2-3.2 1.5-1.1 2.6-1.3 3-.7.4.6.3.9-.2.8-.4-.2-.8.1-.8.7 0 .5.3.9.7.8.5-.2.8.2.8.9 0 .6.7.3 1.6-.8.8-1 1.3-1.4 1-.7-.4.8.3 1.1 2.2 1.1 1.6-.1 3.4.2 4.1.6.6.4 1.1.1 1.1-.6 0-.9.3-.9 1 .2.5.8 1 1 1 .5 0-.6 1.8-1 3.9-1 2.2 0 3.7.3 3.5.7-.2.4 0 .9.6 1.3.5.3 1-.1 1-1.1 0-1.5.2-1.5 2.7.1 1.9 1.3 2.5 1.4 2.1.4-.4-1 .2-1.4 1.8-1.4 1.5 0 2.2.5 2 1.2-.3.7.1 1 .9.6.8-.3 1.3-.8 1.1-1.2-.6-.8 9.8-.6 11.2.3.7.4 1.2.4 1.2-.1 0-.4 1.8-.8 3.9-.8 2.2 0 3.7.3 3.5.7-.2.4 0 .9.6 1.3.5.3 1-.1 1-1.1 0-1.5.2-1.5 2.7.1 1.9 1.3 2.5 1.4 2.1.4-.4-1 .2-1.4 1.8-1.4 1.5 0 2.2.5 2 1.2-.3.7.1 1 .9.6.8-.3 1.3-.8 1-1.3-.2-.4.7-.5 2-.2 1.5.2 2.2.9 1.8 1.6-.3.6.5.1 1.9-1.2 1.9-1.7 2.8-2 3.3-1.1.5.7.4 1-.3.5-.6-.3-1.4-.1-1.8.6-.4.7-.4 1 .1.6.4-.4 1.5-.2 2.3.5 1 .7 1.3.8.9.1-.4-.7.1-1.8 1-2.5 1.5-1.2 1.6-1.2 1 .3-.5 1.5-.4 1.6 1.4.5 1.6-1 2.1-.9 2.9.3.8 1.2 1 1.2 1 .1 0-1.1.3-1.1 1.5-.1s1.6.9 2.1-.4c.6-1.5.8-1.5 2 .1 1.2 1.7 1.3 1.6.9-.4-.2-1.3.1-2.6.7-2.9.6-.4.8-.3.5.3-.4.6 0 1.4.9 1.7 1.2.5 1.5.2 1-1.1-.6-1.5-.5-1.6.6-.5 1 1 1.5.8 2.6-1l1.3-2.3-.6 2.5c-.5 2.2-.4 2.3.5.7.7-1 .9-2.5.6-3.3-.3-.9.1-1.4 1.1-1.4 1.4 0 1.4-.2-.3-1.6-1-.8-1.3-1.2-.5-.8 1 .5 1.3.3.8-.9-.4-1.1-.2-1.4.7-1.1.8.3 1.7 0 2.2-.7.4-.7.3-1-.4-.5-.6.3-1.3.2-1.7-.4-.3-.5-.1-1 .6-1s.4-.7-.7-1.5c-1.6-1.3-1.6-1.4-.1-.9 1.3.5 1.6.2 1.1-1.1-.4-1-.1-2.1.7-2.7 1.1-.8 1-.9-.3-.4-1.2.3-1.8 0-1.8-1 0-.8.3-1.3.8-1.1.4.3.7-6.6.7-15.3 0-8.7-.3-15.6-.7-15.3-1.6.9-.7-1 1-2.3 1.5-1.2 1.5-1.3-.8-.9s-2.4.3-.7-1c1.8-1.3 1.8-1.3 0-1.8-1.6-.4-1.6-.5-.1-.6 1.1-.1 1.5-.6 1.2-1.6-.4-.8-.1-2.2.6-3 1.2-1.4.7-1.9-1.3-1.6-.5.1-.4-.6.1-1.5s.7-2.6.4-3.7c-.4-1.5-.2-1.8.8-1.2.9.5 1.1.4.6-.4-.4-.6-1.1-.9-1.6-.6-.5.3-1.1.1-1.5-.5-.3-.5.1-1 .9-1 1 0 1.3-.6 1-1.5-.4-.8-1.1-1.2-1.8-.9-.6.3 0-.4 1.4-1.5l2.5-2-2.5.4c-2.2.4-2.3.3-.8-.8 1.5-1.2 1.5-1.4 0-2.5-1.6-1-1.6-1.1.1-.6 1.3.5 1.6.2 1.1-1-.3-.9-.1-2.3.6-3.1 1.2-1.4.7-1.9-1.3-1.6-.5.1-.4-.6.1-1.5s.7-2.6.4-3.7c-.4-1.5-.2-1.8.8-1.2.9.5 1.1.4.6-.4-.4-.6-1.1-.9-1.6-.6-.5.3-1.1.1-1.5-.5-.3-.5.1-1 .9-1 1 0 1.3-.6 1-1.5-.4-.8-1.1-1.2-1.8-.9-.6.3 0-.4 1.4-1.5l2.5-2-2.5.4c-2.2.4-2.3.3-.8-.8 1.5-1.2 1.5-1.4 0-2.5-1.5-1-1.5-1.1.3-.5 1.8.6 1.8.5.6-1-.9-1.2-1-1.7-.2-1.7.9 0 .9-.5.1-2-.9-1.7-.8-2 .7-2 1.7-.1 1.7-.1.1-1.1-1-.5-1.8-1.5-1.8-2 0-.6.3-.8.8-.6.4.3.7-6.9.7-15.9 0-13.7-.2-16.4-1.5-16.8-1.1-.3-1-.4.3-.5 1.4-.1 1.6-.5.7-2-.5-1.1-.6-2.2-.1-2.5.7-.5.7-2.4.2-9.9-.1-.5-.6-.5-1.3-.1-.6.4-.8.3-.5-.4.4-.5 1.5-.9 2.5-.7.9.1 2.3-.2 3-.8.8-.6 1.2-.6 1.2.2 0 .9.5.9 2 .1 1.1-.6 2-.7 2-.2 0 .5.7.9 1.5.9s1.2-.4.9-.9c-.3-.4.2-.8 1-.8.9 0 1.6.5 1.6 1.1 0 .6.5.7 1.3.2 1.7-1.1 4.9-1.5 4.3-.5-.3.5.5.7 1.7.6 1.2-.1 2.2-.3 2.2-.4 0-.1 1.9-.3 4.2-.4 2.4-.2 4.1 0 3.8.4-.2.3.6.5 1.8.4 1.2-.1 2.2-.3 2.2-.4 0-.5 7.7-.5 8 .1.6.8 6.7.5 8.3-.5.7-.4 1.2-.2 1.2.4 0 .8.6.8 2 0s2-.8 2 0c0 .7.7.7 2.1-.1 1.6-.8 2.3-.8 2.9.1.5.9.9.9 1.4.1.4-.6 1.3-.8 1.9-.4 1.9 1.2 3.6 1.2 4.3.1.4-.6 1-.5 1.5.3.7 1.1.9 1 .9-.3 0-1.1.5-1.5 1.5-1.2 1 .4 1.3 0 1-1.5-.2-1.4.1-1.8 1-1.5.8.3 1.1 1.3.8 2.2-.3 1-.1 1.3.4.7.4-.6 2.3-1.5 4.1-2.2 3.1-1.1 3.2-1 2 .5-1.2 1.5-1 1.5 1.4-.1 3.2-2 3.8-2.1 3.8-.6 0 .5-.5.7-1.2.3-.7-.5-.8-.3-.4.5.6.9 1.2.8 2.6-.4 1.9-1.7 4.5-1.2 3.4.7-.4.5.4.4 1.7-.4 2.6-1.5 4.7-1.7 6.7-.5.7.5 1.4.2 1.8-.7.3-.9 1-1.3 1.5-1 .5.3.6 1.1.2 1.7-.4.7.1.6 1.1-.2.9-.8 1.5-2 1.2-2.8-.3-.8-.1-1.1.5-.8.5.4 1.7.1 2.6-.7 1.2-.9 1.5-.9.9-.1-.5.9 0 1.3 1.3 1.3 1.2 0 2.1-.4 2.1-.8 0-.5.7-.9 1.5-.9s1.5.5 1.5 1 .7.4 1.5-.3c.9-.7 1.5-.8 1.5-.2 0 .8 2.8.9 3.8.2.1-.2.8-.3 1.5-.4.6-.1 1.1-.7 1-1.4-.2-.7.4-1.2 1.2-1.2.8 0 1.5-.5 1.5-1.2 0-.6.6-.4 1.3.7 1 1.3 1.6 1.5 2.1.6.4-.6 1.2-.8 1.8-.5.6.4.8.2.4-.4-.7-1.2 2.9-2.7 4.3-1.7.5.3 1.3 0 1.7-.6.4-.7.3-.9-.4-.5-.6.3-1.3.3-1.6-.2-.3-.5 0-.9.7-.9s2-.4 3-.8 1.7-.3 1.7.3c0 1.4 4.6-1 6.6-3.4 1.3-1.6 1.5-1.6 1-.2-.3 1.2-.1 1.5 1 1.1.7-.3 1.4-.9 1.4-1.4 0-.5.7-.9 1.6-.9.9 0 1.2.5.8 1.2-.4.7.2.4 1.4-.6 2.4-2.1 3-3.4.9-2-.7.5-.4.1.7-.9 1.3-1.2 2.2-1.4 2.6-.7.4.6 1.4.8 2.4.4 1.3-.5 1.4-.9.5-2-1-1.2-.9-1.3.5-.8.9.3 2.2.1 3-.5.7-.6 1.7-.7 2.2-.3.4.4.2-.1-.5-1.1-1.2-1.5-1.2-1.7.4-1.1 1.4.6 1.6.4 1-.6-.5-.8-.4-1.1.3-.6.6.4.9 1.4.6 2.4-.5 1.5-.5 1.5.6-.1.6-.9.8-2.2.5-2.7-.4-.6.1-.7 1.1-.3 1.3.5 1.5.3.9-.8-.7-1.1-.5-1.1 1 .1 1.6 1.4 1.7 1.3 1.1-.8-.6-1.8-.4-2.1 1-1.5 1.1.4 1.5.2 1.1-.4-.4-.6.1-1.7 1-2.4 1-.8 1.4-.9 1-.2-.4.6-.2 1.5.4 1.9.7.4.9.3.5-.4-.3-.6-.1-1.4.5-1.8.8-.4.7-.9-.2-1.6-1.1-.8-1-.9.2-.5.9.3 2.2 0 2.9-.6 1-.9 1.1-.9.6.3-.6 1.2-.5 1.2.6-.1.7-.8 2.1-1.8 3-2.2 1-.3 1.5-1.2 1.2-2-.3-.8.6-2.1 2.1-3.1 1.4-.9 2.3-2.1 2-2.6-.3-.6.1-.7.9-.4 1.1.4 1.6 0 1.6-1.1 0-.9.8-2.4 1.8-3.3.9-1 1.3-1.4.8-1-.6.5-1.5.8-2.1.8-.5 0 .5-1 2.2-2.1 1.8-1.2 3-2.6 2.6-3.2-.4-.6 0-.8 1-.4 1.8.7 3.3-.8 1.7-1.8-.5-.3-1-1.1-1-1.6 0-.6.4-.8.9-.5.5.3 1.2-.1 1.5-1 .4-1 .2-1.3-.7-.8-.8.5-.8.2.2-.9.7-.9 1.7-1.5 2.1-1.2.5.3 1.2 0 1.6-.6.4-.7.3-.9-.3-.6-.6.4-1.3 0-1.6-.8-.4-.9-.1-1.2.7-.9.8.3 1.7 0 2.2-.7.4-.8.3-1-.4-.5-.7.4-1.2.2-1.2-.3 0-.6.4-1.1.9-1.1s1.1-.9 1.4-2.1c.4-1.3 1-1.8 1.8-1.4.7.5 1 .3.7-.6-.3-.8-1.2-1.3-1.9-1.1-.9.2-.8-.3.4-1.6.9-1 1.4-2.2 1-2.6-.5-.4.1-.6 1.2-.4 1.6.2 2-.2 1.9-2.5 0-1.6.5-2.7 1.4-2.7.7 0 1-.5.7-1-.4-.6-1-.8-1.5-.5-.4.3-.7-.3-.5-1.2.2-1 .4-2.4.4-3.1.1-.8.6-1 1.4-.6.9.6 1 .4 0-.7-2-2.1-1.5-3.1 1-1.9 2.2 1.1 2.2 1.1.2-.7-2.3-2.1-2.6-5.8-.5-5.7 1 .1 1.6-1 1.7-3.3.1-1.8-.2-3.3-.8-3.3-.5 0-.9-.5-.9-1.1 0-.5.5-.7 1-.4.7.4 1-6.8 1-20.9 0-13.7-.4-21.6-1-21.6-.5 0-1-.5-1-1.1 0-.5.4-.8.8-.5.4.2.9-.4.9-1.5.1-1-.3-1.9-.8-1.9-.6 0-.7.4-.4 1 .3.6-.1.7-1 .3-1.3-.5-1.4-.8-.3-1.5 1-.7.9-1.2-.7-2.5s-1.7-1.5-.2-1c.9.4 1.7.2 1.7-.3 0-.6-.5-1-1.1-1-.8 0-.7-.6.2-1.7 1-1.1 1-1.4.2-.9-2 1.1-1.5-.5.5-2 1.5-1.2 1.5-1.3-.7-.9-1.9.4-2.2.2-1.3-.7 1.5-1.5 1.6-3.2.2-2.3-.6.3-.7-.1-.4-.9.3-.9 1-1.3 1.6-1 .5.3.4-.3-.3-1.5-1-1.4-1.5-1.7-2.1-.8-1.2 1.8-1-.1.2-2.4.8-1.4.8-1.9-.2-1.7-.6.2-1.2-.3-1.3-1 0-.7-.7-1.7-1.5-2.2-1.3-.8-1.2-1 .3-1 1.6 0 1.7-.2.4-1.5-.9-.9-1.3-2.4-.9-3.7.5-2.1.4-2.2-1.2-.9-.9.8-1.6 1-1.5.5.4-2.2-.2-4.5-1-4-.5.4-.7-.4-.3-1.6.3-1.4.1-1.9-.6-1.4-.8.4-1 .2-.6-.7.3-.9-.3-1.6-1.5-2-1.5-.3-1.8-1-1.4-2.7.4-1.3 0-2.6-.8-3.1-1.2-.8-1.2-1.1.1-1.9 1.1-.8.7-.9-1.5-.4-2.7.7-2.8.5-1.7-.8 1-1.3 1-1.8.1-2.4-.8-.4-.9-.3-.5.4s.3 1.2-.2 1.2-1.5-1.3-2.2-3c-.7-1.6-1.5-2.8-1.9-2.5-1 .6-4.3-3.4-3.6-4.5.3-.4-.4-.6-1.5-.3-1.4.4-2 0-2-1 0-.9-.5-1.9-1.2-2.3-.7-.5-.8-.3-.3.6.5.9.4 1.1-.4.6-.9-.6-.9-1.1 0-2.2.7-.9.8-1.4.3-1.2-1.5.5-7.4-4.4-6.7-5.6.4-.6 0-.5-.9.2-1.4 1.2-1.6 1-1.1-1 .4-1.8.3-2-.6-.8-1 1.3-1.1 1.3-1.1 0 0-1.8-5-4.4-5.1-2.7 0 .7-.4.3-.9-.8s-.9-1.4-.9-.7c-.1 1-.5.9-1.8-.3-1.4-1.4-1.4-1.8-.2-2.6 1.9-1.2.7-1.1-2.5.1-2.1.8-2.6.7-2.6-.6 0-1.4-.2-1.5-1.7-.3-.9.8-1.4.9-1 .2.4-.6.1-1.4-.5-1.6-1-.4-.9-.8.2-1.6 1.9-1.3 1.4-1.4-2.9-.1-2.9.8-3.4.7-3.8-1.1-.3-1.2-1.1-1.8-1.9-1.5-.7.3-1.6 0-2-.6-.5-.7-.2-.8.6-.3.9.5 1.1.4.6-.3-.4-.8-1.5-.8-3-.2-1.9.7-3 .4-5.2-1.5-1.5-1.3-3.4-2.1-4.2-1.7-.9.3-1.3.1-.9-.5.3-.5 0-1-.8-1s-1.1.5-.7 1.1c.3.6-.6.3-2-.6-2.5-1.6-2.8-1.6-3.6-.2-.8 1.4-1.3 1.2-3.7-1.2-1.5-1.6-2.4-2.3-2.1-1.7.4.7.2 1.3-.3 1.3-.6 0-1.1-.5-1.1-1.1 0-.6-.9-.9-2-.6-1.1.3-1.8.2-1.6-.2.2-.3-1.5-.6-4-.6-2.4 0-4.4.4-4.4 1 0 .5-.5.3-1-.5s-1-1-1-.4-1.3.9-3 .6c-1.6-.2-2.8-.7-2.6-1.1.2-.3-.7-.6-2-.6-2.6 0-3.2 1-1.1 1.8.9.4.9.6-.1.6-.7.1-1.7-.9-2.3-2.2-.7-1.6-1.9-2.3-4.7-2.4-2.6-.2-3.2.1-2.2.7 1.3.8 1.3 1-.2 1-.9 0-1.9.6-2.2 1.2-.3.7-.3.3 0-1 .6-2.6-.4-2.9-2.2-.5-1 1.3-1.3 1.4-.9.3.7-2-3.2-2.4-5.4-.7-1.2.9-1.3.9-.7-.1.6-.9-35.7-1.2-179.9-1.2-157.6 0-180.6.2-180.2 1.5zm377.4 2.2c0 1.4-.1 1.4-1.2-.1-.7-.8-1.6-1.2-2-.8-.5.4-.5.2-.1-.5.9-1.6 3.3-.6 3.3 1.4zm44.1 7.8c-.3.3-.9-.2-1.2-1.2-.6-1.4-.5-1.5.5-.6.7.7 1 1.5.7 1.8zM290.5 95c-.3.5-.1 1 .4 1 .6 0 1.1-.6 1.2-1.3 0-.6.4-.3.9.8.6 1.3.9 1.5.9.5.1-1.3.2-1.3 1.1 0 .5.8 1 1 1 .4s1.1-1.2 2.5-1.2c1.3 0 2.3.4 2 .8-.2.3.2.7 1 .7s1.2-.4.9-.9c-.6-1 1-1.1 2-.1s10.6 1.1 10 .1c-.6-1 1-1.1 2-.1s3.7 1.3 3.1.3c-.6-1 1.5-.8 3.3.4.7.4 1.9.5 2.7.2.8-.3 1.7-.1 2.1.5.4.6 1 .4 1.7-.5 1.1-1.3 1.4-1.3 2.7.2 1.3 1.4 1.2 1.5-.3.9-1.2-.4-1.6-.3-1.2.4.4.6 1.3.8 2 .5.8-.3 1.6 0 1.9.7.3.7.4.1.1-1.3-.3-1.4-.2-1.9.1-1.2.3.6 1.1.9 1.6.6.7-.5.8-.2.3.6-.6 1-.4 1.2.8.7 1-.4 1.4-.2 1.1.7-.3.7.2 1.3 1 1.3s1.3-.3 1.1-.7c-.2-.4.2-.7 1-.7s1.2.4.9.9c-.4.5 0 .9.7.7 2.7-.3 4 .1 3.4 1.1-.3.5.1 1 1 1 1 0 1.3-.5.9-1.2s-.3-.8.5-.4c.9.6.9 1.1-.1 2.4-.9 1.1-1 1.4-.1.8.7-.4 2.2-.2 3.4.5 1.2.6 1.9.7 1.5.1-.3-.5 0-1.2.7-1.5.9-.3 1.2.4 1.1 2.4-.1 1.6.2 2.9.7 2.9.5 0 .9-.6.9-1.3 0-.9.3-.8.9.2.5.8 1.4 1 2.1.6.8-.5 1.1-.4.7.2-.4.6.1 1.7 1 2.4 1.4 1.2 1.6 1.2.8 0-.6-1-.4-1.2.4-.7.7.4 1 1.3.8 1.9-.4 1.2 3.4 4.7 5.1 4.7.5 0 1.7 1 2.8 2.2l1.9 2.3-2.4-2-2.5-2 2 2.6c1.1 1.6 2.5 2.4 3.4 2.1 1.3-.5 1.3-.3.1 1.1-.8 1-.9 1.7-.3 1.7.6 0 2 1 3.1 2.2 1.6 1.6 1.8 2.5.9 3.5-.9 1.1-.7 1.5 1.1 2 1.7.4 1.9.8.9 1.4-1 .7-1.1.9 0 .9.7 0 1 .4.7 1-.3.5.1 1 1.1 1 1.3 0 1.1.4-.7 2-1.3 1.1-1.9 2-1.4 1.9.6-.1 2.1-.1 3.5 0 2.2.1 2.3.3.8 1.2-2 1.1-2.4 2.9-.7 2.9.5 0 .7-.5.3-1.2-.4-.7-.3-.8.4-.4s.8 1.5.2 3c-.6 1.7-.4 2.8.8 4.1.9 1 1.2 1.5.6 1.2-.7-.4-.9.5-.6 2.3.3 1.9.8 2.7 1.6 2.3.6-.3.2.4-.8 1.6-1.5 1.6-1.6 2-.5 1.6 1-.4 1.6 0 1.6.9 0 .8-.4 1.3-.9 1-.5-.3-.7.6-.4 2 .3 1.9 0 2.6-1.2 2.7-1.5.1-1.5.2.1.6.9.2 1.4.9 1.1 1.5-.4.6-.3.8.2.5.6-.3 1.6-.1 2.4.5 1.2.8 1.2.9-.2.4-2-.6-3.4 1-1.6 1.7.7.3.4.6-.7.6-1.6.1-1.7.3-.5 1 .8.6 1.9.7 2.5.3.5-.3.4.2-.4 1.1-.7.9-1.8 1.4-2.4 1-.6-.3-.7-.1-.3.6.4.6 1.2.9 1.7.6.5-.3.6.1.3.9-.3.9-1.1 1.3-1.8.9-.6-.3-.2.4.8 1.6 1.7 1.9 1.7 2.1.3 1.5-1.5-.5-1.6-.3-.9 1.7.4 1.3.7 3 .6 3.6-.1.7-.2 1.8-.3 2.4 0 .5-.6.7-1.3.3-.7-.4-.8-.3-.4.5 1.2 1.8 1.5 6.1.4 5.5-1.7-1.1-3.8 1.7-2.8 3.6.7 1.4.5 2-.7 2.5-1.5.5-1.5.7-.3 1.5 1.1.7 1.2 1 .2 1-.8 0-1 .5-.6 1.2.5.8.1.9-1.2.4-1.5-.6-1.7-.5-.6.5 1.7 1.8 1.5 3.4-.3 1.9-1.4-1.1-1.4-1-.6 1.2.7 1.9.6 2.5-.4 2.5-.8 0-1.1-.5-.8-1 .4-.6.1-.7-.6-.2-.7.4-1.1 1.6-.8 2.6.3 1.2 0 1.9-.9 1.9-.8 0-1.1.6-.7 1.7.4 1.1.3 1.4-.5.9-.8-.5-1.2 0-1.2 1.2 0 1-1 2.7-2.2 3.8l-2.3 1.9 1.9-2.3c1.1-1.2 1.4-2.2.9-2.2-.6 0-1.4.7-1.7 1.6-.3.8-1 1.3-1.5 1-.5-.3-.7.4-.3 1.6.3 1.4.2 1.9-.6 1.4-.7-.4-1.2-.1-1.2.9 0 .9-.4 1.3-1 1-1.6-1-3.3.5-2.1 1.9.8.9.7 1.3-.4 1.3-.8 0-1.5-.4-1.5-.9s-.5-.6-1-.3c-.6.4-.7 1.1-.4 1.7.4.6-.2.6-1.5-.1-1.8-1-2.2-.9-3.1 1.4-.5 1.4-1.2 2.5-1.5 2.5-.4 0-.3-.4 0-1s-.1-.7-.9-.4c-.9.3-1.3 1.1-.9 1.8.4.6-.1.5-1-.3-1.5-1.2-1.7-1.1-1.7.4 0 1.4-.3 1.5-1.5.5-1.3-1.1-1.4-1-.9.4.3.9.1 1.7-.5 1.7-4.3.5-5.8.4-7-.5-1.2-.9-1.3-.8-.6.3.6 1.1.4 1.3-.8.8-1-.3-1.7-.2-1.7.4 0 .6-.8.5-2.1-.2-1.5-.8-1.9-.8-1.5 0 .4.6.2 1.9-.4 2.8-1.1 1.6-1.1 1.6-.6.1.3-1 .1-2-.4-2.3-.6-.4-1 .1-1 1 0 1.3-.4 1.4-2.2.4-2-1.1-2.1-1-1.1.2s.8 1.5-1.1 1.4c-1.3 0-3.1-.7-4.1-1.5-1.4-1.1-1.7-1.2-1.1-.1.6.9.5 1.2-.5.9-.8-.3-1.3-1.1-1.1-1.7.1-.7-.2-1-.8-.6-.6.3-.8 1-.5 1.5.3.5.1 1.1-.5 1.5-.5.3-1 .1-1-.5s-.5-.8-1.2-.4c-1.8 1.1-4.8 1.2-4.8.2 0-.5-.6-.6-1.2-.2-2.3 1.4-4.9 1.2-4.3-.4.4-1.2.3-1.3-.9-.3-.8.7-2.1.9-2.7.5-.9-.5-1-.2-.6 1.2.7 1.8.6 1.8-.7.1-.8-1.1-1.7-1.4-2-.8-.4.6-1.4.7-2.3.4-1.2-.5-1.4-.3-.8.7.5.9.4 1.1-.4.6-.8-.5-.9-1.2-.2-2s.5-1.2-.9-1.2c-1 0-1.6.4-1.4.8.3.4-.3.5-1.2.1-1.5-.6-1.5-.7-.1-1.8 1.1-.8 1.2-1.6.6-2.8-.8-1.3-.6-1.7.8-1.7 1.5 0 1.5-.2.3-.9-.8-.6-1.9-.7-2.5-.5-.5.3-.1-.2.9-1 1.5-1.2 1.6-1.6.5-1.7-.8 0-.9-.3-.3-.5.6-.3 1-2.4.8-5-.2-3.1 0-4.3.8-3.8.7.4.8.3.4-.5-.6-.9-1.1-.9-2.2 0-1.9 1.5-1.8.4.1-1.5 1.3-1.3 1.3-1.6-.1-3-1.3-1.4-1.4-1.6 0-1.6.8 0 1.8-.5 2.2-1.2.4-.6.3-.8-.3-.5-.6.4-1.6 0-2.3-.8-1-1.2-.9-1.6.4-2.1.9-.3 1.3-1 1-1.5-.3-.5-1.1-.7-1.7-.3-.7.3-.4-.1.5-.8 1.1-.9 1.4-1.9.8-2.8-.6-.9-.3-1.8.8-2.7 1.5-1.1 1.4-1.2-.8-.8-2.1.3-2.3.2-.8-.8 1.5-1 1.5-1.2 0-2.4-1.6-1.2-1.6-1.3.1-.7 1.3.5 1.6.2 1.1-1-.3-.9-.1-2.3.5-3 .7-.8.8-1.7.3-2-.5-.3-.8-7.5-.8-16 .1-8.5-.2-15.2-.6-14.9-1.6.9-.7-1 1-2.3 1.5-1.2 1.5-1.3-.8-.9-2.4.4-2.4.4-.6-1 2-1.5 2-1.5 0-1.6-1.6-.1-1.6-.2-.2-.6 1.8-.4 1.4-3.1-.6-4.6-.7-.5-.5-.7.4-.5.9.2 1.6-.2 1.7-.7 0-.6-.3-.9-.9-.7-.6.1-.6-.4 0-1.4.5-.9.7-2.6.4-3.7-.4-1.5-.2-1.8.8-1.2.9.5 1.1.4.6-.4-.4-.6-1.1-.9-1.6-.6-.5.3-1.1.1-1.5-.5-.3-.5.1-1 .9-1 1 0 1.3-.6 1-1.5-.4-.8-1.1-1.2-1.8-.9-.6.3 0-.4 1.4-1.5l2.5-2-2.5.4c-2.1.3-2.3.2-.8-.8 1.5-1 1.5-1.2 0-2.4-1.6-1.2-1.6-1.3.1-.7 1.3.5 1.6.2 1.1-1-.3-.9-.1-2.3.6-3.1 1.2-1.4.7-1.9-1.3-1.6-.5.1-.4-.6.1-1.5s.7-2.6.4-3.7c-.4-1.5-.2-1.8.8-1.2.9.5 1.1.4.6-.4-.4-.6-1.1-.9-1.6-.6-.5.3-1.1.1-1.5-.5-.3-.5.1-1 .9-1 1 0 1.3-.6 1-1.5-.4-.8-1.1-1.2-1.8-.9-.6.3 0-.4 1.4-1.5l2.5-2-2.5.4c-2.1.3-2.3.2-.8-.8 1.5-1 1.5-1.2 0-2.4s-1.5-1.2-.1-.7c1.7.5 1.7-.6.5-7.1-.2-1.1.1-2.6.7-3.3 1.1-1.4 2.1-1.6 1.2-.2zm21.9-.2c.3.5-.1.9-.9.9s-1.2-.4-.9-.9c.3-.4.7-.8.9-.8.2 0 .6.4.9.8zm54.7 19.9c1.3 1.6 1.2 1.7-.3.4-1.7-1.3-2.2-2.1-1.4-2.1.2 0 1 .8 1.7 1.7zM289.5 125c-.3.5-1.2 1-1.8 1-.7 0-.6-.4.3-1 1.9-1.2 2.3-1.2 1.5 0zm98.1 39.5c-.1.8-.5 1.7-.8 2.1-.5.4-.4-1.6.1-3.4.3-.9.9.1.7 1.3zm-98.1 27.4c.3.5.1 1.2-.5 1.6-.5.3-1-.1-1-.9 0-1.8.6-2.1 1.5-.7zm220.1 2c0 1.6-.3 1.7-1.4.9-1.2-1-.7-1.9 1.3-2.8.1 0 .1.9.1 1.9zm-126.2 2.9c.3.5-.1.9-.9.9s-1.2-.4-.9-.9c.3-.4.7-.8.9-.8.2 0 .6.4.9.8zM57 290.5c0 1.2-1.9 1.2-2.3 0-.4-.9-.1-1.2.9-.8.7.3 1.4.7 1.4.8zm357.6 1.7c.4.7.4 1-.1.6-.4-.4-1.5-.2-2.4.5-1.4 1.1-1.4 1-.2-.6 1.6-2 1.8-2.1 2.7-.5zM289.5 381c-.3.5-1.2 1-1.8 1-.7 0-.6-.4.3-1 1.9-1.2 2.3-1.2 1.5 0zM98 397.9c0 1.4-2.9 2.1-3.6.9-.4-.6-.3-.8.4-.4.6.3 1.3.2 1.7-.4.8-1.2 1.5-1.3 1.5-.1zm-73.3 2.3c-.3.8-.6.5-.6-.6-.1-1.1.2-1.7.5-1.3.3.3.4 1.2.1 1.9zm96 0c-.3.8-.6.5-.6-.6-.1-1.1.2-1.7.5-1.3.3.3.4 1.2.1 1.9zm168.8 4.8c-.3.5-1.2 1-1.8 1-.7 0-.6-.4.3-1 1.9-1.2 2.3-1.2 1.5 0zm-19.1 62.8c.3.5-.1.9-.9.9s-1.2-.4-.9-.9c.3-.4.7-.8.9-.8.2 0 .6.4.9.8z"/><path d="M375 127.9c0 .5.7 1.2 1.6 1.5 1.4.5 1.5.4.4-.9-1.4-1.7-2-1.9-2-.6zM340.6 236.8c-.3.5.1.9.9.9s1.2-.4.9-.9c-.3-.4-.7-.8-.9-.8-.2 0-.6.4-.9.8zM321 240.5c0 .8.4 1.5 1 1.5.5 0 .7-.7.4-1.5-.4-.8-.8-1.5-1-1.5-.2 0-.4.7-.4 1.5zM7.5 44c-.4.6-1 .8-1.4.6-.4-.3-.8.1-.8.9 0 1.3.4 1.2 1.9-.2C9 43.7 9.4 43 8.6 43c-.3 0-.8.5-1.1 1zM168.6 121.4c.6 1.5.4 1.7-.6 1.1-.9-.6-1.1-.4-.5.4.5.9 1 1 1.8.2s.7-1.4-.2-2.4c-1-1-1.1-.8-.5.7zM167.6 139.8c-.3.5.1.9.9.9s1.2-.4.9-.9c-.3-.4-.7-.8-.9-.8-.2 0-.6.4-.9.8zM168.3 143.5c0 .8.4 1.2.9.9.5-.3.6-1 .3-1.5-.9-1.3-1.2-1.1-1.2.6zM167.6 171.8c-.3.5.1.9.9.9s1.2-.4.9-.9c-.3-.4-.7-.8-.9-.8-.2 0-.6.4-.9.8zM168.3 175.5c0 .8.4 1.2.9.9.5-.3.6-1 .3-1.5-.9-1.3-1.2-1.1-1.2.6zM167.6 195.8c-.3.5.1.9.9.9s1.2-.4.9-.9c-.3-.4-.7-.8-.9-.8-.2 0-.6.4-.9.8zM508.6 199.3c.3 1 .9 1.5 1.2 1.2.3-.3 0-1.1-.7-1.8-1-.9-1.1-.8-.5.6zM483.9 254.7c-1.3 1.6-1.2 1.7.4.4 1.6-1.3 2.1-2.1 1.3-2.1-.2 0-1 .8-1.7 1.7zM32.1 285.5c.1 1.9 1.8 5.1 1.8 3.5 0-.8-.4-2.2-.9-3-.5-.8-.9-1.1-.9-.5zM425 290.1c0 .5.5.7 1 .4.6-.3 1-.8 1-1.1 0-.2-.4-.4-1-.4-.5 0-1 .5-1 1.1zM167.5 293c-.3.5-.1 1 .4 1 .6 0 1.1-.5 1.1-1 0-.6-.2-1-.4-1-.3 0-.8.4-1.1 1zM168.2 311.4c.7.8 1.5 1.2 1.7 1.1.5-.6-1-2.5-2-2.5-.5 0-.4.6.3 1.4zM167.6 331.8c-.3.5.1.9.9.9s1.2-.4.9-.9c-.3-.4-.7-.8-.9-.8-.2 0-.6.4-.9.8zM168.3 335.5c0 .8.4 1.2.9.9.5-.3.6-1 .3-1.5-.9-1.3-1.2-1.1-1.2.6zM167.6 363.8c-.3.5.1.9.9.9s1.2-.4.9-.9c-.3-.4-.7-.8-.9-.8-.2 0-.6.4-.9.8zM168.3 367.5c0 .8.4 1.2.9.9.5-.3.6-1 .3-1.5-.9-1.3-1.2-1.1-1.2.6zM87.5 396c.3.5.1 1-.4 1-.6 0-1.1.5-1.1 1.1 0 .8.4.9 1.3 0 .8-.6 1.8-.7 2.3-.3.4.4.2-.1-.5-1.1-1.4-1.8-2.6-2.4-1.6-.7zM15 396.4c0 .2.7.7 1.6 1 .8.3 1.2.2.9-.4-.6-1-2.5-1.4-2.5-.6zM3.3 419.5c0 .8.4 1.2.9.9.5-.3.6-1 .3-1.5-.9-1.3-1.2-1.1-1.2.6zM143.5 470c-.4.6-1.2.7-1.8.4-.7-.4-.9-.3-.4.1 1.3 1.5 4.6 1.3 4-.2-.6-1.6-1-1.6-1.8-.3zM47.9 471.7c-1.3 1.7-1.3 1.7.6.3 1.1-.8 2.2-1.6 2.4-1.7.2-.2 0-.3-.6-.3s-1.7.8-2.4 1.7zM61.6 471.2c.3.5 1 .6 1.5.3 1.3-.9 1.1-1.2-.6-1.2-.8 0-1.2.4-.9.9zM127.9 471.7c-1.3 1.7-1.3 1.7.6.3 1.1-.8 2.2-1.6 2.4-1.7.2-.2 0-.3-.6-.3s-1.7.8-2.4 1.7z"/></svg>